<?xml version="1.0" encoding="UTF-8"?>
<svg width="1024" height="1024" version="1.1" viewBox="0 0 1200 1200" xmlns="http://www.w3.org/2000/svg">
 <rect width="1200" height="1200" rx="180" fill="#0D0D0D"/>
 <g transform="translate(100, 100) scale(0.833)" fill="#00FF88">
   <path d="m1071.6 588c-104.39-72-218.39-124.78-338.39-158.39-2.3906-1.2188-3.6094 0-6 0 0-6 2.3906-10.781 2.3906-15.609 0-55.219-33.609-102-80.391-123.61l31.219-51.609 18 20.391c3.6094 4.7812 9.6094 7.2188 14.391 7.2188s9.6094-1.2188 13.219-4.7812c8.3906-7.2188 9.6094-19.219 2.3906-27.609l-36-40.781c0-1.2188-1.2188 0-2.3906-1.2188-1.2188-1.2188-1.2188-2.3906-2.3906-2.3906-1.2188-1.2188-3.6094 0-4.7812-1.2188-2.3906 0-3.6094-1.2188-6-1.2188-2.3906 0-4.7812 1.2188-7.2188 2.3906-1.2188 1.2188-3.6094 0-3.6094 1.2188-1.2188 1.2188-1.2188 2.3906-1.2188 2.3906 0 1.2188-2.3906 1.2188-2.3906 2.3906l-50.391 84c-6-1.2188-10.781-1.2188-16.781-1.2188s-10.781 1.2188-16.781 1.2188l-50.391-84c0-1.2188-2.3906-1.2188-2.3906-2.3906 0-1.2188 0-2.3906-1.2188-2.3906-1.2188-1.2188-2.3906-1.2188-3.6094-1.2188-2.3906-1.2188-4.7812-2.3906-7.2188-2.3906-2.3906 0-3.6094 0-6 1.2188-1.2188 0-3.6094 0-4.7812 1.2188-1.2188 0-1.2188 2.3906-2.3906 2.3906-1.2188 0-1.2188 0-2.3906 1.2188l-36 40.781c-7.2188 8.3906-6 20.391 2.3906 27.609 3.6094 3.6094 8.3906 4.7812 13.219 4.7812 6 0 10.781-2.3906 14.391-7.2188l18-20.391 31.219 51.609c-46.781 21.609-80.391 68.391-80.391 123.61 0 6 2.3906 13.219 2.3906 19.219-117.61 33.609-229.22 86.391-331.22 156-7.2188 4.7812-10.781 15.609-7.2188 24 28.781 69.609 91.219 118.78 166.78 129.61 10.781 1.2188 21.609 2.3906 33.609 2.3906 27.609 0 55.219-6 80.391-16.781-1.2188 12-2.3906 25.219-2.3906 37.219 0 39.609 15.609 75.609 36 106.78 1.2188 2.3906 2.3906 3.6094 3.6094 4.7812 52.781 78 140.39 132 145.22 135.61 3.6094 1.2188 7.2188 2.3906 9.6094 2.3906 3.6094 0 7.2188-1.2188 9.6094-2.3906 1.0781-4.8281 88.688-57.609 141.47-136.82 1.2188-1.2188 2.3906-2.3906 3.6094-4.7812 20.391-32.391 36-68.391 36-106.78 0-12-1.2188-27.609-2.3906-42 28.781 14.391 60 21.609 93.609 21.609 10.781 0 21.609-1.2188 33.609-2.3906 74.391-10.781 136.78-60 166.78-129.61 2.3906-8.4375-1.2188-19.266-8.3906-24.047zm-606 97.219c6-6 13.219-12 19.219-19.219l115.17-135.61 114 136.78c4.7812 6 10.781 10.781 16.781 16.781-87.562 18.047-176.39 19.266-265.18 1.2656zm-171.61 16.781c-56.391-8.3906-103.22-42-129.61-92.391 97.219-64.781 201.61-112.78 313.22-144 36-9.6094 73.219 6 92.391 38.391l-114 138c-40.781 46.781-100.78 69.609-162 60zm298.78 268.78c-18-12-58.781-40.781-94.781-79.219 31.219 4.7812 63.609 7.2188 94.781 7.2188 31.219 0 63.609-3.6094 94.781-7.2188-34.781 38.438-75.562 67.219-94.781 79.219zm313.22-268.78c-61.219 9.6094-121.22-13.219-162-61.219l-115.22-136.78c14.391-25.219 40.781-39.609 69.609-40.781 2.3906 0 3.6094 1.2188 6 1.2188h1.2188c6 0 10.781 0 16.781 1.2188 110.39 31.219 216 79.219 313.22 144-26.391 50.344-73.219 83.953-129.61 92.344z"/>
 </g>
</svg>
